<svg width="178" height="178" viewBox="0 0 178 178" fill="none" xmlns="http://www.w3.org/2000/svg">
<path d="M151.1 151.5C148.5 154 146.8 155.6 145.8 156.4C144.4 157.5 142.6 159 141.2 160C140.5 160.5 139.5 161.2 138.8 161.7C136.5 163.3 134.8 164.4 130.9 166.5C127.8 168.2 123.9 169.9 123.9 169.9C122.9 170.3 121.7 170.8 120.7 171.2C119.2 171.8 117.2 172.5 115.6 173C113.5 173.7 110.7 174.5 108.5 174.9C106.2 175.4 103.4 176 101.1 176.3C100 176.4 98.5 176.7 97.4 176.7C95.2 176.9 92.3 177 90 177.1C105.9 176.9 130.5 163.8 150.6 143.8C165.2 129.3 174.1 114.4 176 103.3C175.6 104.4 175.5 105.9 175.3 107.1C175.3 107.2 174 113.5 171.3 120.5C169.5 125.1 167.7 129 165 133.6C164.2 135 163.1 136.8 162.2 138.1C160.2 141 160.2 141 157.8 144.1C156.2 146 153.1 149.5 151.1 151.5Z" fill="url(#paint0_radial_149_362)"/>
<path d="M80.9003 175.5C66.9003 168.6 75.5003 143.2 100 118.9C124.5 94.5 155.7 80.4 169.6 87.3C183.6 94.2 175 119.6 150.5 143.9C126 168.2 94.9003 182.4 80.9003 175.5Z" fill="url(#paint1_radial_149_362)"/>
<path d="M73.0998 175.9C71.8998 175.7 69.7998 175.3 68.0998 174.9C66.8998 174.6 63.9998 173.9 61.5998 173.1C59.1998 172.3 54.7998 170.9 49.1998 168.1C47.1998 167.1 45.1998 166 43.2998 164.8C62.0998 174 104 155 137 122.2C163.7 95.7 176.3 68.2 170.2 53.8C170.9 55.5 172 58.1 173.1 61.6C174.2 65.1 174.9 68.2 175.3 69.7C176.5 75.3 177.2 80.8001 177.3 86.4001C177.6 99.4001 167 119 147.8 138.1C122.3 163.3 90.6998 179 73.0998 175.9Z" fill="url(#paint2_radial_149_362)"/>
<path d="M43.3003 164.7C24.5003 155.4 36.0003 121.3 69.0003 88.5001C102 55.7001 143.9 36.7001 162.7 46.0001C181.5 55.3001 170 89.4001 137 122.2C104 155 62.1003 174 43.3003 164.7Z" fill="url(#paint3_radial_149_362)"/>
<path d="M145.399 20.6C159.699 32.6 147.299 65.2 115.599 96.7C81.6992 130.4 38.5992 149.9 19.2992 140.4C16.3992 139 14.1992 136.9 12.6992 134.4C15.1992 138.6 18.0992 142.6 21.2992 146.3C25.9992 151.8 30.1992 155.3 31.7992 156.6C32.7992 157.4 33.8992 158.2 35.1992 158.8C54.4992 168.4 97.5992 148.8 131.499 115.1C160.299 86.5 173.099 56.9 164.599 42.8C162.099 38.6 159.199 34.7 155.999 30.9C151.299 25.5 146.899 21.8 145.399 20.6Z" fill="url(#paint4_radial_149_362)"/>
<path d="M19.3996 140.4C0.0996046 130.8 11.8996 95.8 45.7996 62.1C79.6996 28.4 122.8 8.9 142.1 18.4C161.4 27.9 149.6 63 115.7 96.7C81.7996 130.4 38.6996 150 19.3996 140.4Z" fill="url(#paint5_radial_149_362)"/>
<path d="M14.5001 131.2C-4.19988 121.9 7.30012 87.8 40.2001 55C73.2001 22.2 115.1 3.2 133.9 12.5C152.7 21.8 141.2 55.9 108.2 88.7C75.2001 121.5 33.3001 140.5 14.5001 131.2Z" fill="url(#paint6_radial_149_362)"/>
<path d="M135.4 13.3C132 11.2 129.1 9.7 128 9.2C126.5 8.4 122.3 6.5 117.1 4.7C115 4 112.8 3.3 110.6 2.8C108 2.1 105.7 1.7 105.7 1.7C105.4 1.6 105 1.6 104.7 1.5C106.3 1.8 107.8 2.3 109.2 3C125.2 10.9 115.4 39.9 87.4 67.8C59.4 95.7 23.7 111.8 7.7 103.9C2.6 101.4 0.2 96.8 0 90.8C0.1 96.4 0.8 102 2 107.5C3.7 115.2 6 120.7 7.1 123.4C8.5 126.8 11 129.4 14.6 131.2C33.4 140.5 75.3 121.5 108.3 88.7C140.3 56.8 152 23.7 135.4 13.3Z" fill="url(#paint7_radial_149_362)"/>
<path d="M104.1 1.40002C104.3 1.40002 104.5 1.50002 104.7 1.50002C104.5 1.40002 104.3 1.40002 104.1 1.40002Z" fill="url(#paint8_radial_149_362)"/>
<path d="M7.7002 103.9C-8.2998 96 1.5002 67 29.5002 39.1C57.5002 11.2 93.2002 -4.89999 109.2 3.00001C125.2 10.9 115.4 39.9 87.4002 67.8C59.4002 95.7 23.6002 111.8 7.7002 103.9Z" fill="url(#paint9_radial_149_362)"/>
<path d="M96.2999 1.8C93.7999 0.5 90.6999 0 87.2999 0C86.8999 0 86.3999 0 85.9999 0.1C86.0999 0.1 86.1999 0.1 86.2999 0.1C86.0999 0.1 85.8999 0.1 85.6999 0.1C85.6999 0.1 85.6999 0.1 85.7999 0.1C83.9999 0.2 81.8999 0.3 80.1999 0.4C80.0999 0.4 80.0999 0.4 79.9999 0.4C79.4999 0.4 78.7999 0.5 78.1999 0.6C77.6999 0.7 77.1999 0.7 76.6999 0.8C76.4999 0.8 76.3999 0.8 76.1999 0.9C74.9999 1 73.7999 1.2 72.4999 1.5C71.2999 1.7 69.9999 2 68.8999 2.2H68.7999C66.7999 2.6 64.1999 3.3 62.1999 4C60.3999 4.6 58.9999 5.1 58.3999 5.3C57.9999 5.4 57.5999 5.6 57.0999 5.8C56.9999 5.9 56.7999 5.9 56.6999 6C55.6999 6.4 54.4999 6.9 53.4999 7.3C53.4999 7.3 52.7999 7.6 51.8999 8H51.7999C51.4999 8.1 51.2999 8.2 50.9999 8.4C50.8999 8.4 50.8999 8.5 50.7999 8.5C49.4999 9.1 47.8999 9.9 46.4999 10.7C46.1999 10.9 45.9999 11 45.6999 11.1C45.1999 11.4 44.5999 11.7 44.0999 12C43.5999 12.3 43.1999 12.5 42.6999 12.8C41.5999 13.5 40.6999 14 39.7999 14.7C39.5999 14.8 39.3999 15 39.1999 15.1C38.9999 15.2 38.7999 15.4 38.5999 15.5C37.8999 16 36.8999 16.7 36.1999 17.2C33.8999 18.9 32.2999 20.2 31.5999 20.8C30.9999 21.3 29.9999 22.1 28.7999 23.3C27.3999 24.5 26.5999 25.4 26.1999 25.7C25.4999 26.4 23.9999 27.9 21.9999 30.2C21.5999 30.7 21.0999 31.2 20.6999 31.8C20.5999 32 20.3999 32.2 20.2999 32.3C20.1999 32.4 20.0999 32.6 19.9999 32.7C19.6999 33.1 19.0999 33.8 18.4999 34.6C18.4999 34.6 18.4999 34.6 18.3999 34.7C18.1999 34.9 18.0999 35.1 17.8999 35.4C17.7999 35.5 17.7999 35.6 17.6999 35.6C17.6999 35.7 17.5999 35.7 17.5999 35.8C17.4999 36 17.2999 36.2 17.1999 36.4C17.1999 36.5 17.0999 36.5 17.0999 36.6C16.6999 37.2 16.1999 37.8 15.7999 38.4C14.5999 40.1 13.7999 41.4 12.7999 43.1C11.9999 44.4 11.3999 45.5 10.9999 46.3C10.2999 47.5 9.79992 48.7 9.29992 49.7C8.69992 50.8 8.29992 51.7 7.69992 53.3C7.19992 54.3 6.79992 55.5 6.29992 56.7C5.49992 57.8 5.09992 59 4.79992 60C4.79992 60.1 4.79992 60.1 4.69992 60.2C4.49992 60.7 4.19992 61.6 3.79992 63C3.39992 64.2 3.09992 65.4 2.79992 66.5C2.79992 66.6 2.69992 66.8 2.69992 66.9C2.59992 67.1 2.59992 67.3 2.49992 67.5C1.99992 69.4 1.49992 72 1.19992 74C-8.35657e-05 81.4 1.89992 87.2 7.59992 90C21.5999 96.9 52.6999 82.8 77.1999 58.4C101.7 34 110.3 8.7 96.2999 1.8Z" fill="url(#paint10_radial_149_362)"/>
<defs>
<radialGradient id="paint0_radial_149_362" cx="0" cy="0" r="1" gradientUnits="userSpaceOnUse" gradientTransform="translate(14.268 44.2465) rotate(-40.2626) scale(192.708)">
<stop stop-color="#AF78EA"/>
<stop offset="0.4841" stop-color="#990EFF"/>
<stop offset="1" stop-color="#37034E"/>
</radialGradient>
<radialGradient id="paint1_radial_149_362" cx="0" cy="0" r="1" gradientUnits="userSpaceOnUse" gradientTransform="translate(-100.553 263.22) rotate(-40.2626) scale(330.17 330.17)">
<stop stop-color="#AF78EA"/>
<stop offset="0.4841" stop-color="#990EFF"/>
<stop offset="1" stop-color="#37034E"/>
</radialGradient>
<radialGradient id="paint2_radial_149_362" cx="0" cy="0" r="1" gradientUnits="userSpaceOnUse" gradientTransform="translate(14.2667 44.2444) rotate(-40.2626) scale(192.71 192.71)">
<stop stop-color="#AF78EA"/>
<stop offset="0.4841" stop-color="#990EFF"/>
<stop offset="1" stop-color="#37034E"/>
</radialGradient>
<radialGradient id="paint3_radial_149_362" cx="0" cy="0" r="1" gradientUnits="userSpaceOnUse" gradientTransform="translate(-100.552 263.22) rotate(-40.2626) scale(330.169 330.169)">
<stop stop-color="#AF78EA"/>
<stop offset="0.4841" stop-color="#990EFF"/>
<stop offset="1" stop-color="#37034E"/>
</radialGradient>
<radialGradient id="paint4_radial_149_362" cx="0" cy="0" r="1" gradientUnits="userSpaceOnUse" gradientTransform="translate(14.2657 44.2432) rotate(-40.2626) scale(192.711 192.711)">
<stop stop-color="#AF78EA"/>
<stop offset="0.4841" stop-color="#990EFF"/>
<stop offset="1" stop-color="#37034E"/>
</radialGradient>
<radialGradient id="paint5_radial_149_362" cx="0" cy="0" r="1" gradientUnits="userSpaceOnUse" gradientTransform="translate(-100.553 263.22) rotate(-40.2626) scale(330.17 330.17)">
<stop stop-color="#AF78EA"/>
<stop offset="0.4841" stop-color="#990EFF"/>
<stop offset="1" stop-color="#37034E"/>
</radialGradient>
<radialGradient id="paint6_radial_149_362" cx="0" cy="0" r="1" gradientUnits="userSpaceOnUse" gradientTransform="translate(203.642 -6.4366) scale(65.2952 65.2952)">
<stop stop-color="#AF78EA"/>
<stop offset="0.4841" stop-color="#990EFF"/>
<stop offset="1" stop-color="#37034E"/>
</radialGradient>
<radialGradient id="paint7_radial_149_362" cx="0" cy="0" r="1" gradientUnits="userSpaceOnUse" gradientTransform="translate(14.2659 44.2421) rotate(-40.2626) scale(192.712 192.712)">
<stop stop-color="#AF78EA"/>
<stop offset="0.4841" stop-color="#990EFF"/>
<stop offset="1" stop-color="#37034E"/>
</radialGradient>
<radialGradient id="paint8_radial_149_362" cx="0" cy="0" r="1" gradientUnits="userSpaceOnUse" gradientTransform="translate(272.189 -40.6701) scale(0.217099)">
<stop stop-color="#AF78EA"/>
<stop offset="0.4841" stop-color="#990EFF"/>
<stop offset="1" stop-color="#37034E"/>
</radialGradient>
<radialGradient id="paint9_radial_149_362" cx="0" cy="0" r="1" gradientUnits="userSpaceOnUse" gradientTransform="translate(-100.552 263.219) rotate(-40.2626) scale(330.17 330.17)">
<stop stop-color="#AF78EA"/>
<stop offset="0.4841" stop-color="#990EFF"/>
<stop offset="1" stop-color="#37034E"/>
</radialGradient>
<radialGradient id="paint10_radial_149_362" cx="0" cy="0" r="1" gradientUnits="userSpaceOnUse" gradientTransform="translate(14.2652 44.2408) rotate(-40.2626) scale(192.714 192.714)">
<stop stop-color="#AF78EA"/>
<stop offset="0.4841" stop-color="#990EFF"/>
<stop offset="1" stop-color="#37034E"/>
</radialGradient>
</defs>
</svg>
