<svg width="131" height="131" viewBox="0 0 131 131" fill="none" xmlns="http://www.w3.org/2000/svg">
<g clip-path="url(#clip0_149_334)">
<path d="M64.7331 26.6021C70.3431 35.9101 70.3038 42.9129 70.1817 48.4248C70.137 52.7117 70.1159 55.5341 72.9747 60.4276C75.8599 65.2146 78.4719 66.5407 82.2833 68.5035C87.2141 70.9699 93.3179 74.1795 99.0345 83.514C104.645 92.822 104.632 99.7182 104.483 105.337C104.438 109.624 104.417 112.446 107.276 117.34L91.4789 126.77C85.8689 117.462 85.8817 110.566 86.0303 104.947C86.075 100.66 86.096 97.838 83.2373 92.9445C80.3521 88.1575 77.7401 86.8314 73.9287 84.8686C68.9979 82.4022 62.8941 79.1926 57.1775 69.8582C51.5674 60.5501 51.6068 53.5474 51.7289 48.0355C51.7736 43.7486 51.7946 40.9262 48.9359 36.0326C46.0507 31.2456 43.4387 29.9195 39.6272 27.9568C34.6965 25.4904 28.5927 22.2807 22.8761 12.9463L38.6997 3.40923C41.5849 8.19621 44.1969 9.52232 48.0083 11.4851C52.9127 14.0581 59.0429 17.1611 64.7331 26.6021Z" fill="url(#paint0_linear_149_334)"/>
<path d="M97.9881 119.674C102.376 117.03 106.501 115.903 107.196 117.207C107.917 118.403 104.968 121.631 100.713 124.196C96.325 126.84 92.2001 127.967 91.5053 126.663C90.6774 125.44 93.6001 122.319 97.9881 119.674Z" fill="url(#paint1_linear_149_334)"/>
<path d="M29.4657 5.98375C33.8537 3.33902 37.9786 2.2125 38.6734 3.51581C39.3947 4.71255 36.4457 7.9402 32.1906 10.5048C27.8025 13.1495 23.6777 14.276 22.9828 12.9727C22.1549 11.7496 25.104 8.52193 29.4657 5.98375Z" fill="url(#paint2_linear_149_334)"/>
</g>
<defs>
<linearGradient id="paint0_linear_149_334" x1="-2.53273" y1="71.6173" x2="121.772" y2="59.6091" gradientUnits="userSpaceOnUse">
<stop stop-color="#AF78EA"/>
<stop offset="0.4841" stop-color="#990EFF"/>
<stop offset="1" stop-color="#37034E"/>
</linearGradient>
<linearGradient id="paint1_linear_149_334" x1="3.22799" y1="131.251" x2="127.533" y2="119.242" gradientUnits="userSpaceOnUse">
<stop stop-color="#AF78EA"/>
<stop offset="0.4841" stop-color="#990EFF"/>
<stop offset="1" stop-color="#37034E"/>
</linearGradient>
<linearGradient id="paint2_linear_149_334" x1="41.0852" y1="-17.442" x2="24.0242" y2="25.1763" gradientUnits="userSpaceOnUse">
<stop stop-color="#AF78EA"/>
<stop offset="0.4841" stop-color="#990EFF"/>
<stop offset="1" stop-color="#37034E"/>
</linearGradient>
<clipPath id="clip0_149_334">
<rect width="107.477" height="107.477" fill="white" transform="translate(0 104.32) rotate(-76.0778)"/>
</clipPath>
</defs>
</svg>
