<svg width="112" height="112" viewBox="0 0 112 112" fill="none" xmlns="http://www.w3.org/2000/svg">
<path d="M73.148 82.5704C65.1487 78.4887 62.1776 73.6811 59.7438 69.854C57.9106 66.8809 56.7095 64.8567 52.5359 62.7683C48.3624 60.68 46.0222 60.9323 42.5436 61.2474C38.053 61.6888 32.424 62.1931 24.3298 58.1429C16.2356 54.0928 13.3594 49.2536 10.9256 45.4265C9.09238 42.4534 7.89133 40.4292 3.71775 38.3408L10.4575 24.7135C18.5517 28.7636 21.4279 33.6028 23.8617 37.4299C25.695 40.4029 26.896 42.4272 31.0696 44.5155C35.2432 46.6039 37.5833 46.3516 41.0619 46.0364C45.5525 45.5951 51.1815 45.0908 59.2757 49.141C67.3699 53.1911 70.2461 58.0303 72.6799 61.8574C74.5132 64.8305 75.7142 66.8547 79.8878 68.943C84.0614 71.0314 86.4015 70.7791 89.8801 70.4639C94.3707 70.0226 99.9997 69.5183 108.094 73.5685L101.323 87.101C97.149 85.0126 94.8088 85.2649 91.3302 85.5801C86.8712 86.1163 81.2422 86.6206 73.148 82.5704Z" fill="url(#paint0_linear_149_390)"/>
<path d="M9.03167 32.4606C7.13315 36.2548 4.72905 38.8471 3.68568 38.246C2.57902 37.7713 3.21252 34.293 5.11103 30.4988C7.00954 26.7046 9.41366 24.1123 10.457 24.7135C11.5953 25.283 10.9618 28.7613 9.03167 32.4606Z" fill="url(#paint1_linear_149_390)"/>
<path d="M106.795 81.379C104.897 85.1731 102.493 87.7655 101.449 87.1643C100.311 86.5948 101.071 83.1797 102.875 79.4172C104.773 75.623 107.177 73.0307 108.221 73.6318C109.232 74.1381 108.599 77.6164 106.795 81.379Z" fill="url(#paint2_linear_149_390)"/>
<defs>
<linearGradient id="paint0_linear_149_390" x1="100.077" y1="21.655" x2="18.9584" y2="84.7083" gradientUnits="userSpaceOnUse">
<stop stop-color="#FF8585"/>
<stop offset="0.5" stop-color="#CA2107"/>
<stop offset="1" stop-color="#680B0B"/>
</linearGradient>
<linearGradient id="paint1_linear_149_390" x1="69.8279" y1="-17.2603" x2="-11.2909" y2="45.7928" gradientUnits="userSpaceOnUse">
<stop stop-color="#FF8585"/>
<stop offset="0.5" stop-color="#CA2107"/>
<stop offset="1" stop-color="#680B0B"/>
</linearGradient>
<linearGradient id="paint2_linear_149_390" x1="108.954" y1="102.756" x2="102.056" y2="65.6236" gradientUnits="userSpaceOnUse">
<stop stop-color="#FF8585"/>
<stop offset="0.5" stop-color="#CA2107"/>
<stop offset="1" stop-color="#680B0B"/>
</linearGradient>
</defs>
</svg>
