<svg width="110" height="110" viewBox="0 0 110 110" fill="none" xmlns="http://www.w3.org/2000/svg">
<g clip-path="url(#clip0_194_280)">
<path d="M83.5643 25.934L57.6303 23.0525L25.9328 25.934L23.0508 54.75L25.9323 83.566L54.7483 87.168L83.5643 83.566L86.4458 54.03L83.5643 25.934Z" fill="white"/>
<path d="M37.7572 70.6417C35.6034 69.1865 34.112 67.0616 33.2979 64.2519L38.2976 62.1916C38.7515 63.9206 39.5437 65.2604 40.6749 66.2114C41.7989 67.1624 43.1676 67.6305 44.7669 67.6305C46.4023 67.6305 47.8071 67.1334 48.981 66.1391C50.1548 65.1448 50.7461 63.8768 50.7461 62.3427C50.7461 60.7725 50.1264 59.4897 48.8874 58.496C47.6484 57.5023 46.0924 57.0046 44.2336 57.0046H41.345V52.0557H43.938C45.5372 52.0557 46.8846 51.6238 47.9796 50.7593C49.0746 49.8948 49.6221 48.7133 49.6221 47.2076C49.6221 45.8679 49.1321 44.8014 48.1526 44.002C47.1731 43.2027 45.9336 42.7992 44.428 42.7992C42.9585 42.7992 41.7912 43.1884 40.9267 43.9736C40.0622 44.7587 39.4353 45.7239 39.0395 46.8622L34.0906 44.8019C34.746 42.9432 35.9494 41.3007 37.714 39.8815C39.4791 38.4624 41.7337 37.749 44.4712 37.749C46.4953 37.749 48.318 38.1383 49.932 38.9234C51.5455 39.7085 52.8135 40.7964 53.7284 42.1794C54.6432 43.5695 55.0971 45.126 55.0971 46.8545C55.0971 48.6196 54.6723 50.1105 53.822 51.3352C52.9717 52.56 51.9271 53.4962 50.6881 54.1521V54.4472C52.3235 55.1316 53.6561 56.1762 54.7078 57.5811C55.7525 58.986 56.2781 60.6646 56.2781 62.6241C56.2781 64.5836 55.7809 66.334 54.7867 67.8686C53.7924 69.4033 52.4166 70.6133 50.6733 71.492C48.923 72.3707 46.9563 72.8175 44.7735 72.8175C42.2451 72.8246 39.9111 72.097 37.7572 70.6417Z" fill="#1A73E8"/>
<path d="M68.4359 45.8317L62.9751 49.8011L60.2305 45.6374L70.0784 38.5341H73.8534V72.0395H68.4359V45.8317Z" fill="#1A73E8"/>
<path d="M83.5638 109.5L109.498 83.566L96.5308 77.803L83.5638 83.566L77.8008 96.533L83.5638 109.5Z" fill="#EA4335"/>
<path d="M20.1729 96.533L25.9358 109.5H83.5673V83.566H25.9358L20.1729 96.533Z" fill="#34A853"/>
<path d="M8.64448 0C3.86864 0 0 3.86864 0 8.64448V83.5655L12.967 89.3285L25.934 83.5655V25.934H83.5655L89.3285 12.967L83.566 0H8.64448Z" fill="#4285F4"/>
<path d="M0 83.566V100.856C0 105.632 3.86863 109.5 8.64448 109.5H25.934V83.566H0Z" fill="#188038"/>
<path d="M83.5654 25.934V83.5655H109.499V25.934L96.5324 20.171L83.5654 25.934Z" fill="#FBBC04"/>
<path d="M109.499 25.934V8.64448C109.499 3.86809 105.631 0 100.855 0H83.5654V25.934H109.499Z" fill="#1967D2"/>
</g>
<defs>
<clipPath id="clip0_194_280">
<rect width="109.5" height="109.5" fill="white"/>
</clipPath>
</defs>
</svg>
