<svg width="158" height="131" viewBox="0 0 158 131" fill="none" xmlns="http://www.w3.org/2000/svg">
<path fill-rule="evenodd" clip-rule="evenodd" d="M127.289 66.5C127.289 93.2856 105.575 115 78.7891 115C52.0032 115 30.2891 93.2856 30.2891 66.5C30.2891 39.7142 52.0032 18 78.7891 18C105.575 18 127.289 39.7142 127.289 66.5ZM67.1073 79.3623C68.5278 80.7828 99.7566 55.5266 98.336 56.947L74.086 81.197C72.6655 82.6175 70.3627 82.6175 68.942 81.197L70.62 73.0456C69.1994 71.6251 57.8214 67.7736 59.242 66.353C60.6625 64.9325 65.6868 69.7485 67.1073 71.1691L68.942 74.6248L93.1921 51.8029C94.6127 50.3824 65.6867 77.9418 67.1073 79.3623Z" fill="#5CED96" fill-opacity="0.2"/>
<path d="M60.8576 93.5747L56.9097 54.8853L96.3887 44.6207L106.653 67.5186L93.2304 95.1539L60.8576 93.5747Z" fill="#5CED96" fill-opacity="0.2"/>
<path fill-rule="evenodd" clip-rule="evenodd" d="M118.289 66.5C118.289 88.3151 100.604 106 78.7891 106C56.9738 106 39.2891 88.3151 39.2891 66.5C39.2891 44.6847 56.9738 27 78.7891 27C100.604 27 118.289 44.6847 118.289 66.5ZM69.275 76.9755C70.432 78.1324 95.8657 57.5629 94.7087 58.7197L74.9587 78.4697C73.8018 79.6266 71.9263 79.6266 70.7693 78.4697L72.1359 71.831C70.979 70.674 61.7123 67.5373 62.8693 66.3803C64.0262 65.2234 68.1181 69.1457 69.275 70.3026L70.7693 73.1171L90.5194 54.5302C91.6763 53.3733 68.1181 75.8185 69.275 76.9755Z" fill="#5CED96" fill-opacity="0.5"/>
<path d="M64.1851 88.5505L60.9698 57.0406L93.1228 48.6808L101.483 67.3295L90.5505 89.8367L64.1851 88.5505Z" fill="#5CED96" fill-opacity="0.5"/>
<path d="M64.4652 78.0031L59.4011 52.1762L87.2536 42.5544L99.9139 60.7852L95.3562 74.9646L85.228 86.1057L64.4652 78.0031Z" fill="white"/>
<path fill-rule="evenodd" clip-rule="evenodd" d="M109.857 66.855C109.857 83.8169 96.106 97.5675 79.1441 97.5675C62.1821 97.5675 48.4316 83.8169 48.4316 66.855C48.4316 49.8929 62.1821 36.1425 79.1441 36.1425C96.106 36.1425 109.857 49.8929 109.857 66.855ZM91.5222 57.5481C92.4218 58.4476 92.4218 59.9061 91.5222 60.8055L76.1659 76.1618C75.2664 77.0614 73.8082 77.0614 72.9085 76.1618L66.766 70.0193C65.8665 69.1197 65.8665 67.6615 66.766 66.7619C67.6655 65.8624 69.124 65.8624 70.0235 66.7619L74.5373 71.2754L81.4009 64.4118L88.2648 57.5481C89.1644 56.6485 90.6226 56.6485 91.5222 57.5481Z" fill="#5CED96"/>
<path d="M27.1895 5.99081L25.5218 16.87C22.9292 16.2814 19.8173 15.7771 16.8626 14.8436C14.4032 14.0764 13.6121 11.0044 14.6581 7.53158C15.4434 4.94 16.8599 3.45042 19.9313 4.36368C22.4733 4.98158 25.1273 5.50086 27.1895 5.99081Z" fill="#5CED96"/>
<path d="M2.15236 128.618C3.4504 126.085 4.08256 122.636 6.16544 121.263C9.35301 119.102 13.4929 118.362 17.3489 116.969C17.2097 121.276 14.0226 125.567 10.4073 126.682C7.8215 127.483 5.21465 128.267 2.62397 129.057L2.15236 128.618Z" fill="#5CED96"/>
<path d="M146.713 104.94C142.004 109.398 136.473 106.433 131.289 106.566C136.032 102.238 141.519 104.917 146.713 104.94Z" fill="#5CED96"/>
<path d="M154.816 12.2982C153.713 13.7662 152.703 15.3015 151.791 16.8953C150.076 20.3364 149.098 20.8209 145.415 19.52C143.481 18.8405 142.401 19.3545 142.115 21.3584C141.754 23.8469 141.276 26.1373 138.459 26.9985C135.213 28.0038 132.361 26.8846 129.896 25.0376C128.89 24.2765 128.605 22.554 127.982 21.2693L128.365 20.9714C129.126 21.3423 129.908 21.6687 130.706 21.949C131.942 22.4131 133.23 22.726 134.542 22.8807C137.986 23.0506 139.859 21.3936 140.374 18.007C140.89 14.6204 141.606 14.3148 144.654 15.4444C147.322 16.4064 148.172 16.0964 149.62 13.6029C150.331 12.194 151.117 10.8247 151.976 9.50084C153.038 8.05999 153.917 8.2547 154.528 9.86258C154.779 10.508 154.977 11.1821 155.181 11.864C155.235 12.1051 155.271 12.3503 155.287 12.5971L154.816 12.2982Z" fill="#5CED96"/>
</svg>
