<svg width="110" height="110" viewBox="0 0 110 110" fill="none" xmlns="http://www.w3.org/2000/svg">
<rect width="110" height="110" rx="55" fill="url(#paint0_linear_156_1389)"/>
<path d="M42.0681 72.3429H46.4395V76.7143H42.0681V72.3429ZM42.0681 67.9714H46.4395V72.3429H42.0681V67.9714ZM42.0681 63.6H46.4395V67.9714H42.0681V63.6ZM37.6966 67.9714H42.0681V72.3429H37.6966V67.9714ZM37.6966 63.6H42.0681V67.9714H37.6966V63.6ZM33.3252 63.6H37.6966V67.9714H33.3252V63.6ZM37.6966 59.2286H42.0681V63.6H37.6966V59.2286ZM46.4395 63.6H50.8109V67.9714H46.4395V63.6ZM46.4395 67.9714H50.8109V72.3429H46.4395V67.9714ZM50.8109 63.6H55.1823V67.9714H50.8109V63.6ZM33.3252 59.2286H37.6966V63.6H33.3252V59.2286ZM37.6966 54.8571H42.0681V59.2286H37.6966V54.8571ZM33.3252 54.8571H37.6966V59.2286H33.3252V54.8571ZM33.3252 50.4857H37.6966V54.8571H33.3252V50.4857ZM37.6966 50.4857H42.0681V54.8571H37.6966V50.4857ZM37.6966 46.1143H42.0681V50.4857H37.6966V46.1143ZM33.3252 46.1143H37.6966V50.4857H33.3252V46.1143ZM33.3252 41.7429H37.6966V46.1143H33.3252V41.7429ZM37.6966 41.7429H42.0681V46.1143H37.6966V41.7429ZM33.3252 33H37.6966V37.3714H33.3252V33ZM37.6966 33H42.0681V37.3714H37.6966V33ZM37.6966 37.3714H42.0681V41.7429H37.6966V37.3714ZM33.3252 37.3714H37.6966V41.7429H33.3252V37.3714ZM63.9252 72.3429H68.2966V76.7143H63.9252V72.3429ZM63.9252 67.9714H68.2966V72.3429H63.9252V67.9714ZM63.9252 63.6H68.2966V67.9714H63.9252V63.6ZM59.5538 67.9714H63.9252V72.3429H59.5538V67.9714ZM59.5538 63.6H63.9252V67.9714H59.5538V63.6ZM55.1823 63.6H59.5538V67.9714H55.1823V63.6ZM55.1823 59.2286H59.5538V63.6H55.1823V59.2286ZM68.2966 63.6H72.6681V67.9714H68.2966V63.6ZM68.2966 67.9714H72.6681V72.3429H68.2966V67.9714ZM68.2966 59.2286H72.6681V63.6H68.2966V59.2286ZM72.6681 63.6H77.0395V67.9714H72.6681V63.6ZM72.6681 59.2286H77.0395V63.6H72.6681V59.2286ZM50.8109 59.2286H55.1823V63.6H50.8109V59.2286ZM68.2966 33H72.6681V37.3714H68.2966V33ZM72.6681 33H77.0395V37.3714H72.6681V33ZM72.6681 37.3714H77.0395V41.7429H72.6681V37.3714ZM72.6681 41.7429H77.0395V46.1143H72.6681V41.7429ZM72.6681 46.1143H77.0395V50.4857H72.6681V46.1143ZM72.6681 50.4857H77.0395V54.8571H72.6681V50.4857ZM68.2966 50.4857H72.6681V54.8571H68.2966V50.4857ZM68.2966 54.8571H72.6681V59.2286H68.2966V54.8571ZM68.2966 46.1143H72.6681V50.4857H68.2966V46.1143ZM68.2966 41.7429H72.6681V46.1143H68.2966V41.7429ZM68.2966 37.3714H72.6681V41.7429H68.2966V37.3714ZM72.6681 54.8571H77.0395V59.2286H72.6681V54.8571ZM55.1823 54.8571H59.5538V59.2286H55.1823V54.8571ZM50.8109 54.8571H55.1823V59.2286H50.8109V54.8571ZM50.8109 50.4857H55.1823V54.8571H50.8109V50.4857ZM55.1823 50.4857H59.5538V54.8571H55.1823V50.4857ZM55.1823 46.1143H59.5538V50.4857H55.1823V46.1143ZM50.8109 46.1143H55.1823V50.4857H50.8109V46.1143ZM50.8109 41.7429H55.1823V46.1143H50.8109V41.7429ZM55.1823 41.7429H59.5538V46.1143H55.1823V41.7429ZM50.8109 33H55.1823V37.3714H50.8109V33ZM55.1823 33H59.5538V37.3714H55.1823V33ZM55.1823 37.3714H59.5538V41.7429H55.1823V37.3714ZM50.8109 37.3714H55.1823V41.7429H50.8109V37.3714Z" fill="white"/>
<defs>
<linearGradient id="paint0_linear_156_1389" x1="20.5" y1="9.5" x2="104" y2="110" gradientUnits="userSpaceOnUse">
<stop stop-color="#FFB415"/>
<stop offset="1" stop-color="#9913FD"/>
</linearGradient>
</defs>
</svg>
